<svg xmlns="http://www.w3.org/2000/svg" viewBox="0 0 204 204"><rect width="204" height="204" fill="#fff"/><rect width="204" height="204" fill="#7fff80"/><path fill="#f55555" d="m35.8 139.8 10.7-8.7c6 10 6.4 20 1.6 23.7-3.6 2.8-6.3-5.1-12.3-15Z"/><path fill="#00700a" d="M76 114.2c-3.8 5.7-7.1 10.9-9.8 12.3-6 3.2-12.3-1.4-15 1-6.4 5.3-10 10-13.2 13.1-9.9 9.8-17.9 7.4-20.7 1.9-2.8-5.5.7-24 3.8-34.8C24.7 94.8 32 71 38.9 65.3c7-5.8 21 9 23.6 7.5l1.3-.7-3.2-15.2-8.5 4.6-1.9-11.3 9.4-1.5-1.8-9L70 36.2v16l7.5-2.8 3.8 7.5-8.5 2.8 2.3 5.2c4.9-3.3 10.2-7 14.7-9.8 9.4-6.2 13.3-16.1 29.1-18.9h.3l-4-15h10.3l.3 9.4 9-6.6 6 8.5-7.8 4.9c5 1.5 10 4 15.1 6.4 3.8 1.7 24.7 5 31 13.1 7.4 9.4 10 21 9.5 33-.8 19.9-11 72.5-14.1 86.6-.4 1.7-3 1.4-2.9 0 .8-11.5 9-51.6 7.6-68.7-1.2-13.7-8.5-31.4-16-34-3.8-1.2-10.5 3-16.5 7.9l3.3 8.2 7.5-3.8 3.8 10.4-7.6 1.9 2.9 14-8.5 3.8-1.9-4.7-8.4 4.7-3.8-9.4 7.5-3.8-7.9-10c-17.7 12.6-34.3 1.2-41 3.5-1.2.4-2.5 1-3.7 2l9.3 12 9.4-3.7 1 15-9.4 1 6.5 14.1-11.6 5.7-2.5-8.5-12.2 6.6-4.7-9 12.2-4.2L76 114.2Z"/><path fill="#fff" d="M45 77.4c5.8 1.2 9 8 7.4 15.3-1.7 7.2-7.7 12-13.4 10.9-5.7-1.3-9-8-7.3-15.3 1.7-7.2 7.6-12 13.4-10.9ZM42.8 93a4 4 0 0 0-5.5-1.7 4 4 0 0 0-1.7 5.5 4 4 0 0 0 5.5 1.7 4 4 0 0 0 1.7-5.5Zm21.9 1.5c5.7 1.9 8.3 9.1 5.9 16.3-2.5 7-9 11.4-14.7 9.5-5.7-1.8-8.3-9.1-5.9-16.2 2.5-7.1 9-11.4 14.7-9.6Zm-2.2 15.3a4.3 4.3 0 0 0-5.5-2.6 4.3 4.3 0 0 0-2.6 5.5 4.3 4.3 0 0 0 5.6 2.6 4.3 4.3 0 0 0 2.5-5.5Z"/><path fill="#a0a0ff" d="m128.8 77.1 4-1.1c1.2-.4 2.7.1 3.2.9l2.6 3.8c.5.8.2 1.9-1 2.1l-4 1c-2 .3-2.9-1-3-1.2L128 79c-.5-.7-.3-1.7.8-2ZM162.6 64l5.4.5a3 3 0 0 1 2.5 1.7l1.7 2.8c.5.7-.4 1.4-.9 1.4l-4.8.3a3.2 3.2 0 0 1-2.8-1.5l-2-3.5c-.8-1.3.3-1.7.9-1.7ZM99.2 86.3l4-.4c.2 0 2-.2 2.7 1.2l2.4 3.5c.8 1.2-1 1.4-1.2 1.4l-3.7.3c-.2 0-1.9.2-2.7-1l-2.5-3.5c-1-1.3.9-1.5 1-1.5ZM133 43.5l4.5-1c.3 0 2.3-.2 4 1.1l3.3 3c.8.8.4 1.8-.7 2l-4.5 1c-.2 0-2.3.9-3.8-.6l-3.2-3.3c-.7-.8-.5-2 .4-2.2ZM75.4 92.8l3.6-.5c1.3-.2 2 .8 2.2 1l1.7 2.2c.5.6.1 1.5-.6 1.7l-3.8.9c-.6.1-1.8-.3-2.2-1.2l-1.6-2.7c-.4-.6 0-1.3.7-1.4Zm-.3-24.2 3-2.1c.1-.1 1.6-1.2 2.4 0l2.8 3.3c1 1.2-.6 1.8-.8 2L79 73c-.2 0-1.6.6-2.4-.4l-2.3-2.3c-.7-.7.6-1.6.7-1.7Zm27.8-20 4-.3c.3 0 2 0 2.2 1.4l.4 4.3c.2 1-.7 1.8-1.7 1.6L104 55c-.2 0-1.9-.3-2.2-1.7l-.7-3.3c-.3-1.1 1.6-1.3 1.8-1.3Z"/><path fill="#00b000" d="M80.3 87a3.1 3.1 0 0 1-4.7-4.2c.7-.8 2-3.1 3.7-5.1 1.5-1.8 3.3-3.4 5.2-4 1.8-.6 4.2-.6 6.8-.2 2.3.3 4.7 1 6.3 1 3-2.4 5-5.3 7-7.5 1.8-2.2 3.8-4 6.3-4.9 3-1.1 6.8-.4 10.4.5 2.3.6 4.6 1.5 6.5.8 1-.3 1.8-1.2 2.6-2.1l3.3-4.3c2-2.7 4.2-4.7 6.4-5.1 2.3-.5 4.9 0 7.4 1.4 3 1.6 5.8 4 7.6 5.6a3.1 3.1 0 0 1-4.1 4.7c-1.5-1.3-4-3.4-6.4-4.7-1.1-.6-2.2-1.1-3.2-.9-.4.1-.8.6-1.2 1l-2.6 3.2c-2.2 3.1-4.8 6.2-7.7 7.2a15 15 0 0 1-8.4-.2c-1.7-.4-3.4-1-5-1.2a6.5 6.5 0 0 0-3.4 0c-2 .8-3.3 2.5-4.9 4.4-2 2.5-4.3 5.4-7.7 7.9-.5.3-1 .5-1.6.6-1.6 0-4.3-.5-7.1-1-2-.3-4-.7-5.2-.3-1.3.5-2.3 1.8-3.2 3L80.3 87Z"/><path fill="#80d800" d="M88.5 84c1.7-.2 5.8 2.4 6 4 .2 1.5-3.1 5-4.8 5.3-1.8.3-5.4-2.2-5.6-3.8-.2-1.5 2.7-5.2 4.4-5.5Zm68.3-28c-.1-1.6 2.8-5.3 4.4-5.2 1.6 0 4.9 4 5 5.6 0 1.6-3 4.2-4.6 4.2-1.6 0-4.8-3-4.8-4.6ZM66 75.9c1.6-.6 6 2 6.5 3.6.5 1.7-2 5.8-3.5 6.3-1.6.5-5.5-1.6-6-3.3-.5-1.6 1.4-6.2 3-6.7Zm52.4-33c2.3-.7 9.6 2 10.3 4.2.8 2.2-3.5 8-5.8 8.7-2.4.8-7.4-2-8.2-4.2-.7-2.2 1.3-7.9 3.7-8.6Zm-.9 36c2.1.2 6.7 4.6 6.6 6.5-.1 2-5.2 5.3-7.3 5-2-.2-5.4-4.5-5.3-6.4.1-2 4-5.3 6-5ZM96.7 59c1.7.7 3.4 4.8 2.8 6.5-.7 1.7-5.2 4.5-6.8 3.8-1.6-.7-3.5-6.2-2.9-8 .7-1.7 5.3-3 7-2.3Zm51 6.8c1.8.1 4.8 3.4 4.6 5.2-.2 1.7-4 5.4-5.7 5.3-1.7-.1-4.6-4.3-4.4-6 .2-1.8 3.9-4.6 5.6-4.5Z"/></svg>